<svg data-v-423bf9ae="" xmlns="http://www.w3.org/2000/svg" viewBox="0 0 369 90" class="iconLeft"><!----><!----><!----><g data-v-423bf9ae="" id="0ddcf092-8fb9-415d-b34f-71873296c9be" fill="black" transform="matrix(4.784689009770447,0,0,4.784689009770447,108.32535111046664,12.32057229537697)"><path d="M9.74 10.19L7.75 10.19L6.89 7.73L3.22 7.73L2.37 10.19L0.35 10.19L3.86 0.56L6.24 0.56L9.74 10.19ZM6.44 6.21L5.49 3.45Q5.41 3.21 5.33 2.96Q5.25 2.72 5.19 2.52Q5.13 2.32 5.10 2.19Q5.06 2.06 5.05 2.04L5.05 2.04Q5.04 2.06 5.01 2.19Q4.98 2.32 4.92 2.52Q4.86 2.72 4.78 2.96Q4.70 3.21 4.62 3.45L4.62 3.45L3.67 6.21L6.44 6.21ZM17.32 8.03L17.32 8.03Q17.32 8.57 17.10 8.99Q16.88 9.41 16.45 9.71Q16.03 10.01 15.42 10.17Q14.80 10.33 14.01 10.33L14.01 10.33Q13.31 10.33 12.74 10.23Q12.17 10.12 11.75 9.89Q11.32 9.65 11.03 9.28Q10.75 8.90 10.60 8.35L10.60 8.35L12.29 8.09Q12.37 8.40 12.52 8.59Q12.66 8.78 12.87 8.89Q13.08 8.99 13.37 9.02Q13.65 9.06 14.01 9.06L14.01 9.06Q14.34 9.06 14.63 9.02Q14.91 8.98 15.12 8.89Q15.33 8.80 15.44 8.63Q15.56 8.46 15.56 8.21L15.56 8.21Q15.56 7.92 15.39 7.76Q15.22 7.59 14.93 7.48Q14.64 7.38 14.25 7.30Q13.86 7.22 13.41 7.12L13.41 7.12Q12.95 7.01 12.50 6.87Q12.04 6.73 11.69 6.48Q11.33 6.23 11.12 5.85Q10.90 5.48 10.90 4.89L10.90 4.89Q10.90 4.37 11.10 3.95Q11.31 3.54 11.70 3.25Q12.10 2.96 12.68 2.81Q13.27 2.65 14.03 2.65L14.03 2.65Q14.63 2.65 15.15 2.77Q15.67 2.88 16.08 3.12Q16.49 3.36 16.77 3.74Q17.04 4.12 17.15 4.65L17.15 4.65L15.45 4.83Q15.40 4.56 15.28 4.39Q15.16 4.21 14.97 4.11Q14.79 4.01 14.55 3.97Q14.31 3.93 14.03 3.93L14.03 3.93Q13.34 3.93 13.00 4.10Q12.66 4.28 12.66 4.69L12.66 4.69Q12.66 4.94 12.80 5.09Q12.94 5.24 13.20 5.34Q13.45 5.44 13.81 5.51Q14.16 5.58 14.57 5.69L14.57 5.69Q15.09 5.80 15.58 5.94Q16.08 6.09 16.46 6.35Q16.85 6.60 17.09 7.01Q17.32 7.41 17.32 8.03ZM20.77 10.32L20.77 10.32Q19.92 10.32 19.46 9.85Q19.00 9.39 19.00 8.46L19.00 8.46L19.00 4.09L18.07 4.09L18.07 2.80L19.10 2.80L19.70 1.06L20.90 1.06L20.90 2.80L22.31 2.80L22.31 4.09L20.90 4.09L20.90 7.94Q20.90 8.48 21.11 8.73Q21.31 8.99 21.75 8.99L21.75 8.99Q21.92 8.99 22.07 8.96Q22.21 8.93 22.39 8.89L22.39 8.89L22.39 10.08Q22.03 10.20 21.64 10.26Q21.24 10.32 20.77 10.32ZM25.46 10.19L23.54 10.19L23.54 4.53Q23.54 4.29 23.53 4.03Q23.53 3.76 23.52 3.52Q23.51 3.27 23.50 3.08Q23.50 2.88 23.48 2.80L23.48 2.80L25.31 2.80Q25.33 2.88 25.34 3.08Q25.35 3.28 25.37 3.52Q25.38 3.76 25.39 4.00Q25.40 4.23 25.40 4.38L25.40 4.38L25.43 4.38Q25.57 3.97 25.72 3.65Q25.86 3.34 26.06 3.11Q26.25 2.89 26.52 2.77Q26.80 2.65 27.20 2.65L27.20 2.65Q27.37 2.65 27.54 2.68Q27.71 2.71 27.79 2.75L27.79 2.75L27.79 4.36Q27.61 4.32 27.42 4.29Q27.23 4.26 26.97 4.26L26.97 4.26Q26.26 4.26 25.86 4.84Q25.46 5.42 25.46 6.56L25.46 6.56L25.46 10.19ZM36.01 6.49L36.01 6.49Q36.01 7.33 35.78 8.04Q35.54 8.74 35.07 9.25Q34.60 9.76 33.89 10.05Q33.19 10.33 32.25 10.33L32.25 10.33Q31.35 10.33 30.66 10.05Q29.97 9.77 29.50 9.26Q29.03 8.76 28.79 8.05Q28.55 7.34 28.55 6.49L28.55 6.49Q28.55 5.66 28.78 4.96Q29.01 4.26 29.48 3.75Q29.94 3.23 30.65 2.95Q31.35 2.66 32.29 2.66L32.29 2.66Q33.29 2.66 34.00 2.95Q34.70 3.23 35.15 3.74Q35.59 4.25 35.80 4.95Q36.01 5.65 36.01 6.49ZM34.00 6.49L34.00 6.49Q34.00 5.17 33.57 4.57Q33.14 3.98 32.32 3.98L32.32 3.98Q31.47 3.98 31.02 4.58Q30.57 5.18 30.57 6.49L30.57 6.49Q30.57 7.15 30.69 7.63Q30.81 8.11 31.03 8.42Q31.25 8.72 31.55 8.87Q31.86 9.02 32.23 9.02L32.23 9.02Q32.66 9.02 32.99 8.87Q33.32 8.72 33.54 8.42Q33.77 8.11 33.89 7.63Q34.00 7.15 34.00 6.49ZM39.46 10.19L37.54 10.19L37.54 4.53Q37.54 4.29 37.53 4.03Q37.53 3.76 37.52 3.52Q37.51 3.27 37.50 3.08Q37.50 2.88 37.48 2.80L37.48 2.80L39.31 2.80Q39.33 2.88 39.34 3.08Q39.35 3.28 39.37 3.52Q39.38 3.76 39.39 4.00Q39.40 4.23 39.40 4.38L39.40 4.38L39.43 4.38Q39.57 3.97 39.72 3.65Q39.86 3.34 40.06 3.11Q40.25 2.89 40.52 2.77Q40.80 2.65 41.20 2.65L41.20 2.65Q41.37 2.65 41.54 2.68Q41.71 2.71 41.79 2.75L41.79 2.75L41.79 4.36Q41.61 4.32 41.42 4.29Q41.23 4.26 40.97 4.26L40.97 4.26Q40.26 4.26 39.86 4.84Q39.46 5.42 39.46 6.56L39.46 6.56L39.46 10.19ZM49.72 2.80L46.79 10.58Q46.53 11.23 46.25 11.70Q45.98 12.17 45.65 12.49Q45.32 12.80 44.90 12.95Q44.49 13.10 43.94 13.10L43.94 13.10Q43.64 13.10 43.33 13.08Q43.01 13.06 42.73 13.01L42.73 13.01L42.73 11.64Q42.87 11.66 43.06 11.68Q43.26 11.70 43.39 11.70L43.39 11.70Q43.67 11.70 43.89 11.63Q44.11 11.57 44.29 11.43Q44.47 11.29 44.62 11.05Q44.78 10.81 44.92 10.45L44.92 10.45L45.04 10.12L42.12 2.80L44.15 2.80L45.31 6.26Q45.34 6.34 45.39 6.51Q45.45 6.69 45.52 6.92Q45.60 7.15 45.67 7.40Q45.75 7.66 45.81 7.89Q45.88 8.11 45.93 8.29Q45.98 8.47 46.00 8.54L46.00 8.54Q46.02 8.47 46.06 8.30Q46.11 8.12 46.17 7.90Q46.22 7.68 46.29 7.43Q46.36 7.18 46.42 6.96Q46.48 6.73 46.54 6.55Q46.59 6.37 46.61 6.29L46.61 6.29L47.71 2.80L49.72 2.80ZM52.66 10.32L52.66 10.32Q51.82 10.32 51.36 9.85Q50.90 9.39 50.90 8.46L50.90 8.46L50.90 4.09L49.96 4.09L49.96 2.80L51.00 2.80L51.60 1.06L52.80 1.06L52.80 2.80L54.20 2.80L54.20 4.09L52.80 4.09L52.80 7.94Q52.80 8.48 53.01 8.73Q53.21 8.99 53.64 8.99L53.64 8.99Q53.82 8.99 53.96 8.96Q54.11 8.93 54.28 8.89L54.28 8.89L54.28 10.08Q53.93 10.20 53.53 10.26Q53.14 10.32 52.66 10.32Z"></path></g><!----><g data-v-423bf9ae="" id="ffdbba43-dc53-434d-a3c6-a267ebb1dcee" transform="matrix(2.8125,0,0,2.8125,0,0)" stroke="none" fill="black"><path d="M11.579 32H32L21.789 14.314z"></path><circle cx="8.683" cy="8.683" r="8.683"></circle></g><!----></svg>